<?xml version="1.0" encoding="utf-8"?>
<!-- Generator: Adobe Illustrator 27.5.0, SVG Export Plug-In . SVG Version: 6.00 Build 0)  -->
<svg version="1.1" id="Layer_1" xmlns="http://www.w3.org/2000/svg" xmlns:xlink="http://www.w3.org/1999/xlink" x="0px" y="0px"
	 viewBox="0 0 630.621 400" style="enable-background:new 0 0 630.621 400;" xml:space="preserve">
<g>
	<rect x="0" style="fill:#FFFFFF;" width="630.621" height="400"/>
</g>
<g>
	<ellipse style="fill:#E0DFE5;" cx="314.23" cy="367.319" rx="296.39" ry="7.522"/>
</g>
<g>
	<g>
		<path style="fill:#A37B90;" d="M172.356,367.319H30.266c-6.621,0-11.989-5.368-11.989-11.989s5.368-11.989,11.989-11.989h142.09
			V367.319z"/>
	</g>
	<g>
		<path style="fill:#B28DA3;" d="M181.948,367.319H63.786c-6.621,0-11.989-5.368-11.989-11.989s5.368-11.989,11.989-11.989h118.161
			c2.199,0,3.981,1.782,3.981,3.981v16.015C185.929,365.537,184.146,367.319,181.948,367.319z"/>
	</g>
	<g>
		<path style="fill:#EBEBED;" d="M185.929,362.689H64.868c-4.204,0-7.612-3.408-7.612-7.612c0-4.204,3.408-7.612,7.612-7.612h121.06
			V362.689z"/>
	</g>
	<g>
		<path style="fill:#FFFFFF;" d="M185.929,352.824h-40.804c-0.158,0-0.286-0.128-0.286-0.285c0-0.157,0.128-0.285,0.286-0.285
			h40.804c0.158,0,0.286,0.128,0.286,0.285C186.215,352.696,186.087,352.824,185.929,352.824z"/>
	</g>
	<g>
		<path style="fill:#FFFFFF;" d="M185.929,357.899h-33.526c-0.158,0-0.286-0.128-0.286-0.285c0-0.157,0.128-0.285,0.286-0.285
			h33.526c0.158,0,0.286,0.128,0.286,0.285C186.215,357.772,186.087,357.899,185.929,357.899z"/>
	</g>
	<g>
		<path style="fill:#D3D2DB;" d="M28.007,343.532h133.819c6.621,0,11.989-5.368,11.989-11.989s-5.368-11.989-11.989-11.989H28.007
			c-0.173,0-0.314,0.14-0.314,0.314v23.35C27.693,343.391,27.833,343.532,28.007,343.532z"/>
	</g>
	<g>
		<path style="fill:#EBEBED;" d="M24.849,343.532h103.456c6.621,0,11.989-5.368,11.989-11.989s-5.368-11.989-11.989-11.989H24.849
			c-2.073,0-3.753,1.68-3.753,3.753v16.472C21.096,341.851,22.776,343.532,24.849,343.532z"/>
	</g>
	<g>
		<path style="fill:#FFFFFF;" d="M21.096,338.901H127.83c4.204,0,7.612-3.408,7.612-7.612c0-4.204-3.408-7.612-7.612-7.612H21.096
			V338.901z"/>
	</g>
	<g>
		<path style="fill:#B9B2C1;" d="M38.964,319.744h107.543c6.621,0,11.989-5.368,11.989-11.989c0-6.621-5.368-11.989-11.989-11.989
			H38.964c-0.756,0-1.369,0.613-1.369,1.369v21.24C37.595,319.131,38.208,319.744,38.964,319.744z"/>
	</g>
	<g>
		<path style="fill:#C7BFCE;" d="M35.551,319.744h83.221c6.621,0,11.989-5.368,11.989-11.989c0-6.621-5.368-11.989-11.989-11.989
			H35.551c-1.885,0-3.414,1.529-3.414,3.414v17.15C32.137,318.216,33.665,319.744,35.551,319.744z"/>
	</g>
	<g>
		<path style="fill:#EBEBED;" d="M32.137,315.113h86.998c4.204,0,7.612-3.408,7.612-7.612s-3.408-7.612-7.612-7.612H32.137V315.113z
			"/>
	</g>
	<g>
		<path style="fill:#F7B369;" d="M80.102,329.037H21.029c-0.158,0-0.286-0.128-0.286-0.285c0-0.157,0.128-0.285,0.286-0.285h59.072
			c0.158,0,0.286,0.128,0.286,0.285C80.387,328.909,80.259,329.037,80.102,329.037z"/>
	</g>
	<g>
		<path style="fill:#F7B369;" d="M67.796,334.111H21.14c-0.158,0-0.286-0.128-0.286-0.285c0-0.157,0.128-0.285,0.286-0.285h46.657
			c0.158,0,0.286,0.128,0.286,0.285C68.082,333.983,67.954,334.111,67.796,334.111z"/>
	</g>
	<g>
		<path style="fill:#A37B90;" d="M54.474,305.249H31.939c-0.158,0-0.286-0.128-0.286-0.285c0-0.157,0.128-0.285,0.286-0.285h22.535
			c0.158,0,0.286,0.128,0.286,0.285C54.76,305.121,54.632,305.249,54.474,305.249z"/>
	</g>
	<g>
		<path style="fill:#A37B90;" d="M63.292,310.324H32.05c-0.158,0-0.286-0.128-0.286-0.285c0-0.157,0.128-0.285,0.286-0.285h31.242
			c0.158,0,0.286,0.128,0.286,0.285C63.578,310.196,63.45,310.324,63.292,310.324z"/>
	</g>
</g>
<g>
	<g>
		<path style="fill:#F2A65A;" d="M198.996,367.319H388.62c6.621,0,11.989-5.368,11.989-11.989s-5.368-11.989-11.989-11.989H198.996
			V367.319z"/>
	</g>
	<g>
		<path style="fill:#F7B369;" d="M199.287,367.319h118.964c6.178,0,11.186-5.008,11.186-11.186v-1.606
			c0-6.178-5.008-11.186-11.186-11.186H199.287c-2.199,0-3.981,1.782-3.981,3.981v16.015
			C195.306,365.537,197.088,367.319,199.287,367.319z"/>
	</g>
	<g>
		<path style="fill:#FFD7B0;" d="M195.306,362.689h121.06c4.204,0,7.612-3.408,7.612-7.612c0-4.204-3.408-7.612-7.612-7.612h-121.06
			V362.689z"/>
	</g>
	<g>
		<path style="fill:#A37B90;" d="M373.759,343.341H229.496c-6.621,0-11.989-5.368-11.989-11.989c0-6.621,5.368-11.989,11.989-11.989
			h144.263c0.173,0,0.314,0.14,0.314,0.314v23.35C374.073,343.201,373.933,343.341,373.759,343.341z"/>
	</g>
	<g>
		<path style="fill:#B28DA3;" d="M376.917,343.341H263.934c-6.621,0-11.989-5.368-11.989-11.989c0-6.621,5.368-11.989,11.989-11.989
			h112.984c2.073,0,3.753,1.68,3.753,3.753v16.472C380.67,341.661,378.99,343.341,376.917,343.341z"/>
	</g>
	<g>
		<path style="fill:#F4F2F4;" d="M380.67,338.711H264.796c-4.204,0-7.612-3.408-7.612-7.612c0-4.204,3.408-7.612,7.612-7.612H380.67
			V338.711z"/>
	</g>
	<g>
		<path style="fill:#FFFFFF;" d="M254.381,352.898h-59.072c-0.158,0-0.286-0.128-0.286-0.285c0-0.157,0.128-0.285,0.286-0.285
			h59.072c0.158,0,0.286,0.128,0.286,0.285C254.666,352.771,254.538,352.898,254.381,352.898z"/>
	</g>
	<g>
		<path style="fill:#D3D2DB;" d="M351.112,271.693h-89.368c-6.621,0-11.989-5.368-11.989-11.989c0-6.621,5.368-11.989,11.989-11.989
			h89.368c1.194,0,2.162,0.968,2.162,2.162v19.654C353.274,270.725,352.306,271.693,351.112,271.693z"/>
	</g>
	<g>
		<path style="fill:#EBEBED;" d="M354.789,271.693h-69.297c-6.621,0-11.989-5.368-11.989-11.989c0-6.621,5.368-11.989,11.989-11.989
			h69.297c1.745,0,3.159,1.414,3.159,3.159v17.66C357.947,270.279,356.533,271.693,354.789,271.693z"/>
	</g>
	<g>
		<path style="fill:#FFFFFF;" d="M357.947,267.316H285.12c-4.518,0-8.18-3.663-8.18-8.18c0-3.89,3.154-7.044,7.044-7.044h73.964
			V267.316z"/>
	</g>
	<g>
		<path style="fill:#B9B2C1;" d="M358.117,257.198h-19.295c-0.158,0-0.286-0.128-0.286-0.285c0-0.157,0.128-0.285,0.286-0.285
			h19.295c0.158,0,0.286,0.128,0.286,0.285C358.402,257.07,358.274,257.198,358.117,257.198z"/>
	</g>
	<g>
		<path style="fill:#B9B2C1;" d="M358.022,262.273h-26.751c-0.158,0-0.286-0.128-0.286-0.285c0-0.157,0.128-0.285,0.286-0.285
			h26.751c0.158,0,0.286,0.128,0.286,0.285C358.307,262.146,358.18,262.273,358.022,262.273z"/>
	</g>
	<g>
		<path style="fill:#FFFFFF;" d="M226.548,358.417h-31.242c-0.158,0-0.286-0.128-0.286-0.285c0-0.157,0.128-0.285,0.286-0.285
			h31.242c0.158,0,0.286,0.128,0.286,0.285C226.834,358.289,226.706,358.417,226.548,358.417z"/>
	</g>
	<g>
		<path style="fill:#D3D2DB;" d="M370.316,319.268H226.053c-6.621,0-11.989-5.368-11.989-11.989c0-6.621,5.368-11.989,11.989-11.989
			h144.263c0.173,0,0.314,0.141,0.314,0.314v23.35C370.63,319.128,370.49,319.268,370.316,319.268z"/>
	</g>
	<g>
		<path style="fill:#EBEBED;" d="M373.474,319.268H260.491c-6.621,0-11.989-5.368-11.989-11.989c0-6.621,5.368-11.989,11.989-11.989
			h112.983c2.073,0,3.753,1.68,3.753,3.753v16.472C377.227,317.588,375.547,319.268,373.474,319.268z"/>
	</g>
	<g>
		<path style="fill:#FFFFFF;" d="M377.227,314.638H261.353c-4.204,0-7.612-3.408-7.612-7.612s3.408-7.612,7.612-7.612h115.875
			V314.638z"/>
	</g>
	<g>
		<path style="fill:#B9B2C1;" d="M359.359,295.481H251.816c-6.621,0-11.989-5.368-11.989-11.989c0-6.621,5.368-11.989,11.989-11.989
			h107.543c0.756,0,1.369,0.613,1.369,1.369v21.24C360.728,294.868,360.115,295.481,359.359,295.481z"/>
	</g>
	<g>
		<path style="fill:#C7BFCE;" d="M362.772,295.481h-83.221c-6.621,0-11.989-5.368-11.989-11.989c0-6.621,5.368-11.989,11.989-11.989
			h83.221c1.885,0,3.414,1.528,3.414,3.414v17.15C366.186,293.952,364.658,295.481,362.772,295.481z"/>
	</g>
	<g>
		<path style="fill:#EBEBED;" d="M366.186,291.104h-86.998c-4.204,0-7.612-3.408-7.612-7.612c0-4.204,3.408-7.612,7.612-7.612
			h86.998V291.104z"/>
	</g>
	<g>
		<path style="fill:#FFFFFF;" d="M366.383,280.986h-22.535c-0.158,0-0.286-0.128-0.286-0.285c0-0.157,0.128-0.285,0.286-0.285
			h22.535c0.157,0,0.285,0.128,0.285,0.285C366.668,280.858,366.54,280.986,366.383,280.986z"/>
	</g>
	<g>
		<path style="fill:#FFFFFF;" d="M366.273,286.06h-31.242c-0.158,0-0.286-0.128-0.286-0.285s0.128-0.285,0.286-0.285h31.242
			c0.157,0,0.285,0.128,0.285,0.285S366.43,286.06,366.273,286.06z"/>
	</g>
	<g>
		<path style="fill:#EBEBED;" d="M377.516,304.552h-59.072c-0.158,0-0.286-0.128-0.286-0.285s0.128-0.285,0.286-0.285h59.072
			c0.157,0,0.285,0.128,0.285,0.285S377.673,304.552,377.516,304.552z"/>
	</g>
	<g>
		<path style="fill:#EBEBED;" d="M377.086,310.07h-31.242c-0.158,0-0.286-0.128-0.286-0.285c0-0.157,0.128-0.285,0.286-0.285h31.242
			c0.157,0,0.285,0.128,0.285,0.285C377.371,309.942,377.244,310.07,377.086,310.07z"/>
	</g>
	<g>
		<path style="fill:#A37B90;" d="M380.483,328.847h-22.535c-0.158,0-0.286-0.128-0.286-0.285c0-0.157,0.128-0.285,0.286-0.285
			h22.535c0.157,0,0.285,0.128,0.285,0.285C380.768,328.719,380.64,328.847,380.483,328.847z"/>
	</g>
	<g>
		<path style="fill:#A37B90;" d="M380.717,333.921h-31.243c-0.158,0-0.286-0.128-0.286-0.285c0-0.157,0.128-0.285,0.286-0.285
			h31.243c0.157,0,0.285,0.128,0.285,0.285C381.002,333.793,380.874,333.921,380.717,333.921z"/>
	</g>
</g>
<g>
	<g>
		<g>
			<path style="fill:#B9B2C1;" d="M573.358,271.503h-142.09c-6.621,0-11.989-5.368-11.989-11.989
				c0-6.621,5.368-11.989,11.989-11.989h142.09V271.503z"/>
		</g>
		<g>
			<path style="fill:#C7BFCE;" d="M582.95,271.503H463.986c-6.178,0-11.186-5.008-11.186-11.186v-1.606
				c0-6.178,5.008-11.186,11.186-11.186H582.95c2.199,0,3.981,1.782,3.981,3.981v16.015
				C586.931,269.72,585.149,271.503,582.95,271.503z"/>
		</g>
		<g>
			<path style="fill:#EBEBED;" d="M586.931,266.872H465.871c-4.204,0-7.612-3.408-7.612-7.612c0-4.204,3.408-7.612,7.612-7.612
				h121.061V266.872z"/>
		</g>
		<g>
			<path style="fill:#B9B2C1;" d="M586.931,257.008h-40.804c-0.157,0-0.285-0.128-0.285-0.285c0-0.157,0.128-0.285,0.285-0.285
				h40.804c0.157,0,0.285,0.128,0.285,0.285C587.216,256.88,587.088,257.008,586.931,257.008z"/>
		</g>
		<g>
			<path style="fill:#B9B2C1;" d="M586.931,262.083h-33.525c-0.157,0-0.285-0.128-0.285-0.285c0-0.157,0.128-0.285,0.285-0.285
				h33.525c0.157,0,0.285,0.128,0.285,0.285C587.216,261.955,587.088,262.083,586.931,262.083z"/>
		</g>
		<g>
			<path style="fill:#A37B90;" d="M429.009,247.715h133.819c6.621,0,11.989-5.368,11.989-11.989c0-6.621-5.368-11.989-11.989-11.989
				H429.009c-0.173,0-0.314,0.14-0.314,0.314v23.35C428.695,247.575,428.836,247.715,429.009,247.715z"/>
		</g>
		<g>
			<path style="fill:#B28DA3;" d="M425.851,247.715h103.456c6.621,0,11.989-5.368,11.989-11.989c0-6.621-5.368-11.989-11.989-11.989
				H425.851c-2.073,0-3.753,1.68-3.753,3.753v16.472C422.098,246.035,423.779,247.715,425.851,247.715z"/>
		</g>
		<g>
			<path style="fill:#EBEBED;" d="M422.098,243.085h106.734c4.204,0,7.612-3.408,7.612-7.612c0-4.204-3.408-7.612-7.612-7.612
				H422.098V243.085z"/>
		</g>
		<g>
			<path style="fill:#FFFFFF;" d="M481.104,233.221h-59.072c-0.157,0-0.285-0.128-0.285-0.285c0-0.157,0.128-0.285,0.285-0.285
				h59.072c0.157,0,0.285,0.128,0.285,0.285C481.389,233.093,481.261,233.221,481.104,233.221z"/>
		</g>
		<g>
			<path style="fill:#FFFFFF;" d="M468.799,238.295h-46.657c-0.157,0-0.285-0.128-0.285-0.285c0-0.157,0.128-0.285,0.285-0.285
				h46.657c0.157,0,0.285,0.128,0.285,0.285C469.084,238.167,468.956,238.295,468.799,238.295z"/>
		</g>
		<g>
			<path style="fill:#F2A65A;" d="M567.89,319.078H423.627c-6.621,0-11.989-5.368-11.989-11.989c0-6.621,5.368-11.989,11.989-11.989
				H567.89c0.173,0,0.314,0.141,0.314,0.314v23.35C568.204,318.938,568.063,319.078,567.89,319.078z"/>
		</g>
		<g>
			<path style="fill:#F7B369;" d="M571.048,319.078H458.064c-6.621,0-11.989-5.368-11.989-11.989
				c0-6.621,5.368-11.989,11.989-11.989h112.984c2.073,0,3.753,1.68,3.753,3.753v16.472
				C574.801,317.398,573.12,319.078,571.048,319.078z"/>
		</g>
		<g>
			<path style="fill:#FFD7B0;" d="M574.801,314.447H458.926c-4.204,0-7.612-3.408-7.612-7.612c0-4.204,3.408-7.612,7.612-7.612
				h115.875V314.447z"/>
		</g>
		<g>
			<path style="fill:#D3D2DB;" d="M556.932,295.29H449.389c-6.621,0-11.989-5.368-11.989-11.989s5.368-11.989,11.989-11.989h107.543
				c0.756,0,1.369,0.613,1.369,1.369v21.24C558.301,294.678,557.688,295.29,556.932,295.29z"/>
		</g>
		<g>
			<path style="fill:#EBEBED;" d="M560.346,295.29h-83.221c-6.621,0-11.989-5.368-11.989-11.989s5.368-11.989,11.989-11.989h83.221
				c1.885,0,3.414,1.528,3.414,3.414v17.15C563.76,293.762,562.231,295.29,560.346,295.29z"/>
		</g>
		<g>
			<path style="fill:#FFFFFF;" d="M563.76,290.914h-86.998c-4.204,0-7.612-3.408-7.612-7.612s3.408-7.612,7.612-7.612h86.998
				V290.914z"/>
		</g>
		<g>
			<path style="fill:#D3D2DB;" d="M563.956,280.796h-22.534c-0.157,0-0.285-0.128-0.285-0.285c0-0.157,0.128-0.285,0.285-0.285
				h22.534c0.157,0,0.285,0.128,0.285,0.285C564.242,280.668,564.114,280.796,563.956,280.796z"/>
		</g>
		<g>
			<path style="fill:#D3D2DB;" d="M563.846,285.87h-31.242c-0.157,0-0.285-0.128-0.285-0.285c0-0.157,0.128-0.285,0.285-0.285
				h31.242c0.157,0,0.285,0.128,0.285,0.285C564.131,285.742,564.003,285.87,563.846,285.87z"/>
		</g>
		<g>
			<path style="fill:#B28DA3;" d="M575.089,304.361h-59.072c-0.157,0-0.285-0.128-0.285-0.285c0-0.157,0.128-0.285,0.285-0.285
				h59.072c0.157,0,0.285,0.128,0.285,0.285C575.374,304.233,575.246,304.361,575.089,304.361z"/>
		</g>
		<g>
			<path style="fill:#B28DA3;" d="M574.66,309.88h-31.243c-0.157,0-0.285-0.128-0.285-0.285c0-0.157,0.128-0.285,0.285-0.285h31.243
				c0.157,0,0.285,0.128,0.285,0.285C574.946,309.752,574.818,309.88,574.66,309.88z"/>
		</g>
		<g>
			<path style="fill:#B9B2C1;" d="M597.228,367.034H420.567c-6.398,0-11.585-5.187-11.585-11.585v-0.809
				c0-6.398,5.187-11.585,11.585-11.585h176.661V367.034z"/>
		</g>
		<g>
			<path style="fill:#C7BFCE;" d="M596.937,367.034H477.972c-6.178,0-11.186-5.008-11.186-11.186v-1.606
				c0-6.178,5.008-11.186,11.186-11.186h118.964c2.199,0,3.981,1.782,3.981,3.981v16.015
				C600.918,365.251,599.135,367.034,596.937,367.034z"/>
		</g>
		<g>
			<path style="fill:#E0DFE5;" d="M600.918,362.403H479.857c-4.204,0-7.612-3.408-7.612-7.612c0-4.204,3.408-7.612,7.612-7.612
				h121.061V362.403z"/>
		</g>
		<g>
			<path style="fill:#D3D2DB;" d="M422.464,343.056h144.263c6.621,0,11.989-5.368,11.989-11.989c0-6.621-5.368-11.989-11.989-11.989
				H422.464c-0.173,0-0.314,0.141-0.314,0.314v23.35C422.151,342.915,422.291,343.056,422.464,343.056z"/>
		</g>
		<g>
			<path style="fill:#EBEBED;" d="M419.307,343.056H532.29c6.621,0,11.989-5.368,11.989-11.989c0-6.621-5.368-11.989-11.989-11.989
				H419.307c-2.073,0-3.753,1.68-3.753,3.753v16.472C415.554,341.376,417.234,343.056,419.307,343.056z"/>
		</g>
		<g>
			<path style="fill:#FFFFFF;" d="M415.554,338.425h115.875c4.204,0,7.612-3.408,7.612-7.612s-3.408-7.612-7.612-7.612H415.554
				V338.425z"/>
		</g>
		<g>
			<path style="fill:#FFFFFF;" d="M600.915,352.613h-59.072c-0.157,0-0.285-0.128-0.285-0.285c0-0.157,0.128-0.285,0.285-0.285
				h59.072c0.157,0,0.285,0.128,0.285,0.285C601.201,352.485,601.073,352.613,600.915,352.613z"/>
		</g>
		<g>
			<path style="fill:#FFFFFF;" d="M600.918,358.132h-31.243c-0.157,0-0.285-0.128-0.285-0.285s0.128-0.285,0.285-0.285h31.243
				c0.157,0,0.285,0.128,0.285,0.285S601.076,358.132,600.918,358.132z"/>
		</g>
		<g>
			<path style="fill:#B9B2C1;" d="M438.277,328.56h-22.535c-0.157,0-0.285-0.128-0.285-0.285s0.128-0.285,0.285-0.285h22.535
				c0.157,0,0.285,0.128,0.285,0.285S438.434,328.56,438.277,328.56z"/>
		</g>
		<g>
			<path style="fill:#B9B2C1;" d="M446.749,333.636h-31.242c-0.157,0-0.285-0.128-0.285-0.285c0-0.157,0.128-0.285,0.285-0.285
				h31.242c0.157,0,0.285,0.128,0.285,0.285C447.035,333.508,446.907,333.636,446.749,333.636z"/>
		</g>
	</g>
	<g>
		<path style="fill:#B9B2C1;" d="M551.335,223.738H443.916c-6.683,0-12.1-5.417-12.1-12.1v-0.224c0-6.683,5.417-12.1,12.1-12.1
			h107.419c0.763,0,1.382,0.618,1.382,1.382v21.661C552.717,223.119,552.098,223.738,551.335,223.738z"/>
	</g>
	<g>
		<path style="fill:#C7BFCE;" d="M554.73,223.738h-83.079c-6.683,0-12.1-5.417-12.1-12.1v-0.224c0-6.683,5.417-12.1,12.1-12.1
			h83.079c1.903,0,3.445,1.543,3.445,3.446v17.533C558.175,222.195,556.633,223.738,554.73,223.738z"/>
	</g>
	<g>
		<path style="fill:#E0DFE5;" d="M558.175,218.844h-86.962c-4.224,0-7.648-3.424-7.648-7.648v-0.072
			c0-4.224,3.424-7.648,7.648-7.648h86.962V218.844z"/>
	</g>
	<g>
		<path style="fill:#B9B2C1;" d="M558.372,208.886h-22.535c-0.158,0-0.287-0.129-0.287-0.287s0.129-0.287,0.287-0.287h22.535
			c0.158,0,0.287,0.129,0.287,0.287S558.531,208.886,558.372,208.886z"/>
	</g>
	<g>
		<path style="fill:#B9B2C1;" d="M558.262,214.009H527.02c-0.158,0-0.287-0.129-0.287-0.287c0-0.158,0.129-0.287,0.287-0.287h31.242
			c0.158,0,0.287,0.129,0.287,0.287C558.549,213.88,558.42,214.009,558.262,214.009z"/>
	</g>
</g>
<g>
	<g>
		<path style="fill:#FCA338;" d="M549.101,166.503c-0.728,0-1.438-0.368-1.844-1.035c-0.619-1.017-0.296-2.343,0.721-2.962
			c8.573-5.223,20.041-14.763,18.691-19.621c-1.484-5.343-13.057-3.426-16.993-2.333c-1.149,0.322-2.336-0.353-2.654-1.5
			c-0.318-1.148,0.352-2.336,1.5-2.654c0.79-0.22,19.363-5.247,22.302,5.333c2.695,9.704-16.69,22.076-20.604,24.458
			C549.87,166.401,549.483,166.503,549.101,166.503z"/>
	</g>
	<g>
		<path style="fill:#FCA338;" d="M535.604,178.216c-11.907,0-21.56-9.653-21.56-21.56v-22.885c0-2.425,1.966-4.391,4.391-4.391
			h34.338c2.425,0,4.391,1.966,4.391,4.391v22.885C557.164,168.563,547.511,178.216,535.604,178.216z"/>
	</g>
	<g>
		<rect x="531.531" y="168.171" style="fill:#FCA338;" width="8.145" height="25.872"/>
	</g>
	<g>
		<path style="fill:#FCA338;" d="M551.654,199.313h-32.1v-1.437c0-5.028,4.076-9.103,9.103-9.103h13.894
			c5.028,0,9.103,4.076,9.103,9.103V199.313z"/>
	</g>
	<g>
		<path style="fill:#FFB655;" d="M533.048,178.224c-11.907,0-21.56-9.653-21.56-21.56v-22.885c0-2.425,1.966-4.391,4.391-4.391
			h34.338c2.425,0,4.391,1.966,4.391,4.391v22.885C554.608,168.572,544.956,178.224,533.048,178.224z"/>
	</g>
	<g>
		<rect x="528.976" y="168.18" style="fill:#FFB655;" width="8.145" height="25.872"/>
	</g>
	<g>
		<path style="fill:#FFB655;" d="M549.099,199.322h-32.1v-1.437c0-5.027,4.076-9.103,9.103-9.103h13.894
			c5.028,0,9.103,4.076,9.103,9.103V199.322z"/>
	</g>
	<g>
		<path style="fill:#FFB655;" d="M515.745,166.503c-0.382,0-0.768-0.102-1.119-0.314c-3.913-2.382-23.3-14.754-20.605-24.458
			c2.939-10.578,21.513-5.552,22.303-5.333c1.146,0.318,1.817,1.505,1.5,2.652c-0.317,1.147-1.511,1.821-2.652,1.502
			c-3.941-1.089-15.515-2.996-16.996,2.333c-1.35,4.858,10.118,14.398,18.692,19.621c1.017,0.619,1.34,1.945,0.721,2.962
			C517.183,166.135,516.473,166.503,515.745,166.503z"/>
	</g>
	<g>
		<path style="fill:#FFDD92;" d="M537.12,133.926h-20.122c-0.134,0-0.242-0.108-0.242-0.242c0-0.134,0.108-0.242,0.242-0.242h20.122
			c0.134,0,0.242,0.108,0.242,0.242C537.363,133.817,537.254,133.926,537.12,133.926z"/>
	</g>
	<g>
		<path style="fill:#FFDD92;" d="M521.315,194.294c-0.023,0-0.047-0.004-0.07-0.011c-0.128-0.039-0.2-0.173-0.162-0.301
			c0.011-0.034,1.067-3.366,5.978-3.366c0.134,0,0.242,0.108,0.242,0.242c0,0.134-0.108,0.242-0.242,0.242
			c-4.535,0-5.476,2.898-5.514,3.022C521.515,194.226,521.418,194.294,521.315,194.294z"/>
	</g>
</g>
<g>
	<g>
		<path style="fill:#FFB655;" d="M379.728,86.17l7.88,5.776c0.052,0.038,0.118,0.052,0.181,0.038l9.572-2.121
			c0.589-0.168,1.115,0.413,0.89,0.982l-3.239,9.245c-0.023,0.066-0.014,0.14,0.025,0.198l5.598,8.351
			c0.342,0.508-0.048,1.188-0.659,1.15l-10.49-0.511c-0.072-0.004-0.141,0.028-0.186,0.084l-6.417,8.098
			c-0.378,0.482-1.145,0.322-1.297-0.272l-2.633-9.659c-0.018-0.067-0.067-0.122-0.131-0.148l-9.121-3.725
			c-0.575-0.21-0.659-0.989-0.142-1.318l8.01-5.77c0.053-0.038,0.086-0.097,0.092-0.162l0.859-9.697
			C378.541,86.101,379.256,85.78,379.728,86.17z"/>
	</g>
	<g>
		<path style="fill:#FFDD92;" d="M373.44,101.323c-0.075,0-0.148-0.035-0.196-0.1c-0.078-0.108-0.054-0.26,0.055-0.338l4.739-3.43
			c0.106-0.078,0.258-0.054,0.338,0.054c0.078,0.108,0.054,0.26-0.055,0.338l-4.739,3.43
			C373.539,101.309,373.49,101.323,373.44,101.323z"/>
	</g>
</g>
<g>
	<g>
		<path style="fill:#FFB655;" d="M567.588,54.678l0.796,6.153c0.005,0.041,0.028,0.077,0.062,0.1l5.168,3.472
			c0.335,0.197,0.299,0.693-0.062,0.839l-5.669,2.561c-0.041,0.018-0.07,0.055-0.08,0.098l-1.387,6.232
			c-0.084,0.38-0.567,0.498-0.817,0.201l-4.36-5.046c-0.03-0.035-0.075-0.053-0.12-0.049l-6.534,0.597
			c-0.387,0.037-0.649-0.385-0.443-0.715l3.287-5.441c0.023-0.038,0.027-0.084,0.011-0.125l-2.283-5.825
			c-0.155-0.357,0.166-0.736,0.543-0.643l6.161,1.155c0.041,0.008,0.082-0.003,0.115-0.028l4.834-3.853
			C567.1,54.102,567.561,54.29,567.588,54.678z"/>
	</g>
	<g>
		<path style="fill:#FFDD92;" d="M561.632,59.237c-0.044-0.004-3.697-0.68-3.697-0.68c-0.132-0.024-0.219-0.151-0.194-0.282
			c0.024-0.132,0.149-0.22,0.282-0.194l3.653,0.676c0.132,0.024,0.219,0.151,0.194,0.282
			C561.849,59.156,561.747,59.237,561.632,59.237z"/>
	</g>
</g>
<g>
	<g>
		<g>
			<path style="fill:#F48462;" d="M442.059,93.76c0,0-6.716,0.272-10.61-1.104c-3.894-1.376-4.846-2.842-4.683-3.526
				c0.163-0.684,2.829-0.44,2.829-0.44s-3.616-1.408-3.236-2.902c0.38-1.495,3.716-0.66,3.716-0.66s-2.341-1.612-1.402-2.564
				c0.938-0.953,5.808,0.801,5.808,0.801s-2.615-2.729-1.897-3.475c0.717-0.746,6.408,1.391,7.692,2.699
				c1.284,1.307,2.464,3.776,2.464,3.776L442.059,93.76z"/>
		</g>
	</g>
	<g>
		<path style="fill:#5C69A5;" d="M425.296,139.769c-0.053,0-0.107-0.004-0.161-0.013c-0.528-0.089-0.884-0.588-0.796-1.116
			l18.78-112.1c0.088-0.527,0.579-0.883,1.116-0.796c0.528,0.089,0.884,0.588,0.796,1.116l-18.78,112.1
			C426.171,139.433,425.761,139.769,425.296,139.769z"/>
	</g>
	<g>
		<polygon style="fill:#92B4EA;" points="444.591,30.061 398.826,44.34 437.943,69.744 		"/>
	</g>
	<g>
		<polygon style="fill:#F48462;" points="509.292,167.963 513.165,173.323 524.691,165.997 519.946,160.494 		"/>
	</g>
	<g>
		<path style="fill:#5C69A5;" d="M528.596,168.6l2.856,3.352l0.793,0.931c0.729,0.856,0.694,2.125-0.081,2.939l-23.033,24.215
			c-0.583,0.613-1.569,0.59-2.112-0.058c-0.307-0.366-0.647-0.81-0.974-1.315c-1.139-1.767-2.121-4.288-0.984-6.879
			c3.904-8.893,5.734-17.62,5.703-19.201c-0.013-0.716,0.334-1.429,0.934-1.893l9.861-7.142c0.827-0.64,1.432-0.358,2.135,0.263
			l2.293,2.025C526.936,166.678,527.811,167.602,528.596,168.6z"/>
	</g>
	<g>
		<path style="fill:#F7B369;" d="M508.531,183.049c-0.102,0-0.196-0.064-0.23-0.167c-0.042-0.127,0.027-0.264,0.154-0.306
			l4.573-1.506c0.127-0.043,0.264,0.026,0.307,0.154c0.042,0.127-0.027,0.264-0.154,0.306l-4.573,1.506
			C508.581,183.045,508.556,183.049,508.531,183.049z"/>
	</g>
	<g>
		<path style="fill:#F7B369;" d="M509.456,179.641c-0.102,0-0.196-0.064-0.23-0.167c-0.042-0.127,0.027-0.264,0.154-0.306
			l4.573-1.506c0.127-0.042,0.264,0.026,0.307,0.154c0.042,0.127-0.027,0.264-0.154,0.306l-4.573,1.506
			C509.507,179.637,509.482,179.641,509.456,179.641z"/>
	</g>
	<g>
		<path style="fill:#F7B369;" d="M504.881,181.065c-0.556,0-1.069-0.096-1.469-0.345c-0.524-0.327-0.8-0.869-0.818-1.612
			c-0.017-0.71,0.22-1.229,0.705-1.542c1.168-0.759,3.553-0.039,4.971,0.506c-1.027-1.092-2.477-2.827-2.213-3.676
			c0.059-0.187,0.219-0.425,0.651-0.497c0.367-0.06,0.712,0.031,1.03,0.268c1.338,0.999,1.782,4.426,1.801,4.572
			c0.009,0.069-0.013,0.136-0.054,0.186c-0.06,0.056-0.1,0.076-0.146,0.083c-0.017,0.003-0.033,0.005-0.05,0.003
			c-0.034-0.001-0.067-0.01-0.097-0.024c-1.154-0.551-4.414-1.805-5.632-1.016c-0.338,0.219-0.496,0.587-0.483,1.124
			c0.015,0.577,0.207,0.974,0.59,1.212c1.495,0.93,5.213-0.764,5.25-0.782c0.122-0.055,0.265-0.002,0.321,0.119
			c0.057,0.122,0.003,0.266-0.118,0.322C508.996,180.025,506.712,181.065,504.881,181.065z M506.923,174.367
			c-0.045,0-0.09,0.004-0.137,0.012c-0.228,0.037-0.256,0.128-0.267,0.162c-0.176,0.564,1.177,2.247,2.417,3.527
			c-0.199-1.042-0.658-2.892-1.488-3.511C507.279,174.43,507.106,174.367,506.923,174.367z"/>
	</g>
	<g>
		<polygon style="fill:#F48462;" points="470.465,177.734 470.507,184.346 483.616,186.618 483.476,177.834 		"/>
	</g>
	<g>
		<path style="fill:#5C69A5;" d="M484.433,191.459l-0.357,4.389l-0.121,1.484c-0.079,0.97-0.878,1.723-1.851,1.746l-33.439,0.788
			c-0.991,0.023-1.769-0.832-1.66-1.818c0.045-0.407,0.113-0.858,0.215-1.332c0.447-2.055,1.539-4.529,4.177-5.553
			c9.054-3.515,16.526-8.38,17.623-9.519c0.498-0.515,1.248-0.773,2-0.676l11.462,1.799c1.037,0.134,1.823,0.903,1.88,1.839
			l0.185,3.054C484.622,188.927,484.585,190.199,484.433,191.459z"/>
	</g>
	<g>
		<path style="fill:#F7B369;" d="M464.5,189.699c-0.037,0-0.074-0.008-0.109-0.026l-4.295-2.175
			c-0.119-0.061-0.167-0.206-0.107-0.326c0.06-0.12,0.207-0.166,0.325-0.107l4.295,2.175c0.119,0.061,0.167,0.207,0.106,0.326
			C464.674,189.651,464.588,189.699,464.5,189.699z"/>
	</g>
	<g>
		<path style="fill:#F7B369;" d="M467.568,187.948c-0.037,0-0.074-0.008-0.109-0.026l-4.296-2.175
			c-0.119-0.061-0.167-0.207-0.106-0.326c0.06-0.12,0.207-0.167,0.325-0.107l4.296,2.175c0.119,0.061,0.167,0.207,0.107,0.326
			C467.742,187.9,467.656,187.948,467.568,187.948z"/>
	</g>
	<g>
		<path style="fill:#F7B369;" d="M462.717,185.71c-0.028,0-0.057-0.005-0.084-0.015c-0.168-0.062-4.11-1.544-4.564-3.51
			c-0.139-0.603,0.051-1.18,0.564-1.718c0.489-0.512,1.022-0.71,1.589-0.59c1.362,0.292,2.535,2.487,3.151,3.878
			c0.048-1.499,0.253-3.75,1.04-4.163c0.175-0.09,0.457-0.145,0.812,0.11c0.301,0.216,0.481,0.526,0.538,0.92
			c0.237,1.652-1.876,4.387-1.966,4.503c-0.043,0.055-0.105,0.086-0.17,0.092c-0.083-0.003-0.125-0.018-0.161-0.044
			c-0.061-0.058-0.078-0.087-0.089-0.118c-0.426-1.206-1.84-4.401-3.258-4.706c-0.391-0.082-0.766,0.063-1.137,0.452
			c-0.398,0.417-0.543,0.834-0.441,1.273c0.395,1.713,4.222,3.151,4.26,3.166c0.126,0.046,0.189,0.186,0.144,0.311
			C462.909,185.65,462.816,185.71,462.717,185.71z M464.717,180.001c-0.04,0-0.065,0.013-0.079,0.02
			c-0.523,0.274-0.76,2.419-0.79,4.202c0.597-0.876,1.583-2.507,1.436-3.533c-0.038-0.262-0.149-0.456-0.342-0.595
			C464.838,180.021,464.766,180.001,464.717,180.001z"/>
	</g>
	<g>
		<g>
			<path style="fill:#F48462;" d="M519.19,52.387c0,0,3.194-5.914,3.667-10.017c0.473-4.103-0.425-5.602-1.111-5.756
				c-0.686-0.154-1.637,2.349-1.637,2.349s0.323-3.867-1.187-4.182c-1.51-0.315-2.225,3.049-2.225,3.049s-0.42-2.811-1.688-2.386
				c-1.268,0.425-1.831,5.57-1.831,5.57s-1.304-3.547-2.289-3.23c-0.986,0.317-1.564,6.368-0.953,8.096
				c0.611,1.728,2.31,3.872,2.31,3.872L519.19,52.387z"/>
		</g>
	</g>
	<g>
		<path style="fill:#F48462;" d="M520.109,38.962c0,0,1.868-4.783,2.946-1.24c0.818,2.687-0.242,7.641-1.514,7.568
			c-1.271-0.073-1.925-2.767-1.925-2.767s-0.605,1.973-2.141,1.428c-1.398-0.496-1.484-2.861-1.484-2.861s-0.272,2.382-1.848,1.758
			c-2.317-0.917-0.449-7.174,0.792-7.96c1.649-1.046,1.551,2.037,1.551,2.037s1.529-3.302,2.979-1.943
			C520.916,36.339,520.109,38.962,520.109,38.962z"/>
	</g>
	<g>
		<path d="M516.028,47.989c-0.134,0-0.242-0.109-0.242-0.243c0.009-5.48-2.809-6.837-2.839-6.85
			c-0.121-0.056-0.175-0.199-0.119-0.321c0.055-0.122,0.199-0.175,0.319-0.121c0.128,0.058,3.132,1.475,3.123,7.293
			C516.27,47.881,516.161,47.989,516.028,47.989z"/>
	</g>
	<g>
		<path d="M521.371,45.473c-0.039,0-0.079-0.001-0.12-0.004c-0.604-0.04-1.093-0.488-1.451-1.333
			c-0.321-0.757-0.427-1.625-0.305-2.508l0.373-2.699c0.018-0.131,0.138-0.22,0.273-0.207c0.133,0.019,0.226,0.141,0.207,0.273
			l-0.373,2.699c-0.11,0.797-0.017,1.576,0.269,2.252c0.282,0.663,0.631,1.012,1.037,1.039c0.766,0.044,0.964-0.565,0.984-0.635
			c0.034-0.128,0.164-0.206,0.297-0.17c0.128,0.035,0.205,0.166,0.171,0.295C522.641,44.831,522.238,45.473,521.371,45.473z"/>
	</g>
	<g>
		<path d="M517.803,44.22c-0.117,0-0.239-0.01-0.367-0.03c-1.809-0.295-1.693-2.999-1.688-3.113l0.497-4.182
			c0.016-0.132,0.121-0.228,0.269-0.212c0.133,0.016,0.229,0.136,0.212,0.27l-0.495,4.166c0.001,0.007-0.099,2.369,1.283,2.594
			c1.371,0.227,1.852-1.2,1.871-1.261c0.041-0.127,0.178-0.197,0.304-0.159c0.128,0.04,0.199,0.175,0.159,0.303
			C519.662,43.191,519.01,44.22,517.803,44.22z"/>
	</g>
	<g>
		<path d="M514.988,43.038c-0.127,0-0.234-0.099-0.242-0.228c-0.008-0.133,0.094-0.249,0.228-0.256
			c0.521-0.032,0.74-1.112,0.776-1.488c0.012-0.133,0.126-0.234,0.265-0.218c0.133,0.013,0.23,0.131,0.218,0.264
			c-0.019,0.19-0.207,1.863-1.23,1.925C514.997,43.038,514.993,43.038,514.988,43.038z"/>
	</g>
	<g>
		<g>
			<path style="fill:#A37B90;" d="M468.806,98.95c0,0-8.412,23.152-10.697,38.998c-2.285,15.846,5.608,41.583,5.608,41.583
				l24.301-0.337c0,0-4.57-25.512-5.4-33.266c-0.623-8.541,3.739-45.517,3.739-45.517L468.806,98.95z"/>
		</g>
	</g>
	<g>
		<g>
			<path style="fill:#A37B90;" d="M497.054,98.5c0,0,4.569,20.679,13.708,37.987c9.139,17.308,13.501,22.253,13.501,22.253
				l-19.082,17.404c0,0-21.835-25.72-24.536-43.253c-2.7-17.532-2.492-33.267-2.492-33.267L497.054,98.5z"/>
		</g>
	</g>
	<g>
		<path style="fill:#FFFFFF;" d="M495.452,112.6c-3.775,0-5.515-3.843-5.534-3.887c-0.054-0.123,0.002-0.265,0.124-0.319
			c0.119-0.054,0.265,0.001,0.319,0.124c0.083,0.19,2.104,4.635,6.642,3.376c0.13-0.033,0.263,0.041,0.298,0.168
			c0.036,0.129-0.04,0.263-0.169,0.298C496.533,112.526,495.972,112.6,495.452,112.6z"/>
	</g>
	<g>
		<path style="fill:#FFFFFF;" d="M505.397,134.992c-0.175,0-0.339-0.055-0.482-0.161c-0.454-0.339-0.505-0.697-0.467-0.938
			c0.191-1.212,3.187-2.266,3.527-2.382c0.092-0.033,0.196-0.004,0.262,0.072c0.064,0.075,0.077,0.182,0.031,0.27
			c-0.151,0.291-1.513,2.851-2.669,3.115C505.531,134.984,505.463,134.992,505.397,134.992z M507.521,132.198
			c-1.135,0.457-2.501,1.185-2.594,1.771c-0.009,0.059-0.037,0.238,0.277,0.473c0.085,0.063,0.173,0.078,0.287,0.054
			C506.127,134.35,507,133.079,507.521,132.198z"/>
	</g>
	<g>
		<path style="fill:#FFFFFF;" d="M482.649,140.499c-0.092,0-0.179-0.052-0.22-0.141c-2.889-6.249-4.156-23.624-4.295-25.648
			l-6.984-2.12c-0.128-0.039-0.2-0.174-0.161-0.302c0.038-0.128,0.175-0.198,0.302-0.162l7.145,2.168
			c0.097,0.029,0.165,0.115,0.172,0.216c0.012,0.192,1.296,19.227,4.262,25.645c0.057,0.122,0.003,0.265-0.118,0.321
			C482.717,140.492,482.683,140.499,482.649,140.499z"/>
	</g>
	<g>
		<path style="fill:#68B6D8;" d="M490.246,65.212l1.386,36.071c3.586-0.426,6.018-0.94,6.018-0.94s0.93-5.456,1.202-8.926
			c0.271-3.47,0.646-7.002,0.646-7.002s13.087-3.445,18.698-9.609c7.957-8.761,5.321-26.884,5.321-26.884l-14.082-0.184
			c0,0-0.203,4.797-5.04,11.271C500.189,64.65,493.919,65.454,490.246,65.212z"/>
	</g>
	<g>
		<path style="fill:#5C69A5;" d="M505.902,64.613c-1.595,0-3.637-2.735-3.891-3.084c-0.063-0.086-0.061-0.204,0.003-0.289
			c0.064-0.086,0.176-0.119,0.276-0.082c1.054,0.386,4.497,1.725,4.568,2.734c0.012,0.165-0.044,0.399-0.377,0.578
			C506.299,64.569,506.104,64.613,505.902,64.613z M502.951,61.933c0.915,1.077,2.451,2.568,3.303,2.111
			c0.029-0.016,0.125-0.071,0.122-0.117C506.346,63.514,504.7,62.64,502.951,61.933z"/>
	</g>
	<g>
		<path style="fill:#F48462;" d="M429.595,88.69c0,0-5.117-0.422-2.407,2.103c2.055,1.914,6.971,3.137,7.464,1.963
			c0.493-1.174-1.641-2.945-1.641-2.945s2.038,0.323,2.223-1.296c0.168-1.474-1.919-2.59-1.919-2.59s2.26,0.801,2.391-0.888
			c0.194-2.484-6.248-3.553-7.5-2.784c-1.664,1.023,1.149,2.287,1.149,2.287s-3.638-0.076-3.054,1.823
			C426.884,88.263,429.595,88.69,429.595,88.69z"/>
	</g>
	<g>
		<path d="M440.704,89.654c-4.33,0-4.385-4.65-4.385-4.697c0-0.134,0.108-0.242,0.241-0.243c0.135,0,0.243,0.108,0.243,0.242
			c0.001,0.172,0.058,4.214,3.9,4.214c0.134,0,0.242,0.108,0.242,0.242C440.947,89.546,440.838,89.654,440.704,89.654z"/>
	</g>
	<g>
		<path d="M433.622,93.491c-0.085,0-0.162-0.008-0.227-0.021c-0.131-0.026-0.216-0.154-0.189-0.285
			c0.025-0.131,0.15-0.213,0.285-0.19c0.068,0.014,0.707,0.107,0.999-0.605c0.154-0.377-0.006-0.844-0.478-1.388
			c-0.482-0.555-1.141-0.981-1.904-1.232l-2.589-0.85c-0.128-0.041-0.196-0.178-0.155-0.306c0.043-0.128,0.182-0.195,0.306-0.154
			l2.589,0.85c0.848,0.278,1.581,0.754,2.119,1.375c0.602,0.693,0.79,1.328,0.561,1.889
			C434.64,93.304,434.035,93.491,433.622,93.491z"/>
	</g>
	<g>
		<path d="M433.322,90.076c-0.129,0-0.247-0.009-0.349-0.025c-0.132-0.02-0.223-0.144-0.202-0.275
			c0.021-0.133,0.151-0.222,0.275-0.204c0.064,0.01,1.549,0.217,1.954-1.126c0.405-1.34-1.76-2.288-1.782-2.298l-3.944-1.378
			c-0.126-0.044-0.192-0.182-0.148-0.309c0.045-0.125,0.183-0.193,0.309-0.148l3.96,1.384c0.121,0.051,2.601,1.135,2.07,2.889
			C435.106,89.773,434.047,90.076,433.322,90.076z"/>
	</g>
	<g>
		<path d="M434.445,86.389c-0.556,0-1.114-0.199-1.216-0.237c-0.125-0.047-0.189-0.187-0.142-0.312
			c0.047-0.126,0.185-0.188,0.312-0.142c0.354,0.133,1.422,0.409,1.678-0.045c0.067-0.117,0.217-0.156,0.33-0.091
			c0.117,0.066,0.157,0.214,0.092,0.331C435.282,86.275,434.864,86.389,434.445,86.389z"/>
	</g>
	<g>
		<path style="fill:#68B6D8;" d="M468.808,68.26c0,0-1.987,1.537-5.788,6.546c-3.78,4.981-21.348,8.379-21.348,8.379l-0.968,12.27
			c0,0,22.439,10.23,30.516-2.764C479.296,79.696,468.808,68.26,468.808,68.26z"/>
	</g>
	<g>
		<path style="fill:#F7B369;" d="M467.452,93.811c0.068,4.865,0.494,6.929,0.494,6.929s5.078,0.989,13.432,1.124
			c3.731,0.058,7.366-0.233,10.254-0.581l-1.386-36.071c-0.543-0.029-1.018-0.087-1.434-0.155
			c-4.138-0.688-9.843-1.958-14.834,1.144c-4.516,2.801-5.847,16.204-5.847,16.204S467.384,88.937,467.452,93.811z"/>
	</g>
	<g>
		<path style="fill:#5C69A5;" d="M460.951,82.91c-1.799,0-2.655-4.081-2.748-4.552c-0.021-0.104,0.029-0.21,0.123-0.261
			c0.094-0.05,0.21-0.034,0.285,0.042c0.794,0.794,3.354,3.457,2.994,4.403c-0.059,0.154-0.208,0.344-0.585,0.365
			C460.997,82.91,460.974,82.91,460.951,82.91z M458.884,79.12c0.377,1.363,1.147,3.34,2.108,3.305
			c0.033-0.002,0.143-0.012,0.16-0.054C461.3,81.983,460.173,80.498,458.884,79.12z"/>
	</g>
	<g>
		<path style="fill:#68B6D8;" d="M483.666,64.207l0.146,40.315c0,0,13.91-1.213,15.04-2.646c1.131-1.433,0.969-23.565,0.969-23.565
			l-9.575-13.099L483.666,64.207z"/>
	</g>
	<g>
		<path style="fill:#68B6D8;" d="M475.937,65.157c0,0-4.082,38.518-4.717,38.518s-4.189-1.011-4.512-1.798
			c-0.323-0.787,1.146-16.672,1.146-16.672l-0.534-12.809c-0.121-2.918,1.447-4.999,4.632-6.267L475.937,65.157z"/>
	</g>
	<g>
		<g>
			<g>
				<g>
					<path style="fill:#F48462;" d="M483.812,60.013l-0.195,5.631c0,0-1.072,1.583-4.375,1.737c-2.461,0.114-3.304-0.47-3.304-0.47
						l0.441-2.84l0.434-2.769l5.994-1.102L483.812,60.013z"/>
				</g>
			</g>
		</g>
	</g>
	<g>
		<g>
			<g>
				<g>
					<path d="M482.806,60.199c-0.02,0.153-0.084,0.333-0.183,0.538c-1.358,2.769-4.823,3.256-6.245,3.334l0.434-2.769
						L482.806,60.199z"/>
				</g>
			</g>
		</g>
	</g>
	<g>
		<g>
			<g>
				<g>
					<path style="fill:#F48462;" d="M476.002,48.422c0,0-3.2,6.958-2.171,10.921c1.029,3.963,4.632,3.411,6.796,2.691
						c2.163-0.721,3.186-2.02,3.186-2.02s1.994,0.719,3.373-1.122c1.378-1.841,0.593-4-0.544-4.513
						c-1.137-0.513-2.516,0.288-2.516,0.288l1.107-2.019C485.233,52.649,480.938,42.2,476.002,48.422z"/>
				</g>
			</g>
		</g>
	</g>
	<g>
		<path d="M476.158,57.362c-0.104,0-0.201-0.068-0.232-0.173c-0.447-1.515,0.634-3.035,0.68-3.099
			c0.078-0.108,0.228-0.134,0.338-0.054c0.108,0.078,0.133,0.229,0.055,0.338c-0.01,0.014-0.987,1.394-0.607,2.678
			c0.038,0.128-0.035,0.263-0.164,0.301C476.203,57.359,476.18,57.362,476.158,57.362z"/>
	</g>
	<g>
		<path d="M484.385,57.98c-0.061,0-0.121-0.022-0.169-0.068c-0.096-0.093-0.099-0.247-0.005-0.343l1.932-1.996
			c0.092-0.096,0.245-0.099,0.343-0.006c0.096,0.093,0.099,0.247,0.005,0.343l-1.932,1.996
			C484.512,57.956,484.449,57.98,484.385,57.98z"/>
	</g>
	<g>
		<path d="M486.41,57.465c-0.039-0.003-1.355-0.219-1.355-0.219c-0.132-0.022-0.222-0.147-0.2-0.278
			c0.021-0.132,0.146-0.225,0.278-0.2l1.316,0.216c0.132,0.022,0.222,0.147,0.2,0.278C486.63,57.381,486.528,57.465,486.41,57.465z"
			/>
	</g>
	<g>
		<path d="M480.619,52.293c-0.089,0-0.175-0.049-0.217-0.134c-0.305-0.611-1.146-0.451-1.18-0.444
			c-0.126,0.025-0.258-0.059-0.285-0.19c-0.026-0.131,0.059-0.258,0.189-0.285c0.048-0.01,1.238-0.241,1.709,0.703
			c0.06,0.12,0.011,0.265-0.108,0.325C480.693,52.285,480.656,52.293,480.619,52.293z"/>
	</g>
	<g>
		<path d="M476.839,51.438c-0.078,0-0.155-0.038-0.202-0.108c-0.115-0.173-0.25-0.268-0.412-0.291
			c-0.322-0.043-0.721,0.216-0.843,0.321c-0.104,0.086-0.255,0.074-0.342-0.026c-0.087-0.102-0.076-0.254,0.025-0.341
			c0.024-0.021,0.603-0.519,1.224-0.433c0.305,0.042,0.558,0.21,0.752,0.502c0.073,0.111,0.044,0.262-0.068,0.336
			C476.932,51.425,476.885,51.438,476.839,51.438z"/>
	</g>
	<g>
		<path d="M477.515,59.064c-0.119,0-0.222-0.087-0.239-0.208c-0.02-0.132,0.072-0.255,0.204-0.274
			c0.011-0.001,1.01-0.155,1.435-0.821c0.071-0.113,0.223-0.146,0.334-0.074c0.113,0.072,0.147,0.222,0.074,0.334
			c-0.546,0.856-1.724,1.033-1.773,1.04C477.537,59.064,477.526,59.064,477.515,59.064z"/>
	</g>
	<g>
		<path d="M475.368,54.097c-0.019,0-0.038-0.002-0.058-0.007c-0.13-0.032-0.209-0.163-0.178-0.292l0.295-1.214
			c0.03-0.13,0.159-0.211,0.293-0.178c0.13,0.032,0.209,0.163,0.178,0.292l-0.295,1.214
			C475.577,54.023,475.477,54.097,475.368,54.097z"/>
	</g>
	<g>
		<path d="M478.781,54.536c-0.019,0-0.038-0.002-0.058-0.007c-0.13-0.031-0.209-0.163-0.178-0.292l0.295-1.214
			c0.031-0.13,0.159-0.211,0.293-0.178c0.13,0.031,0.209,0.163,0.178,0.292l-0.295,1.214
			C478.99,54.461,478.89,54.536,478.781,54.536z"/>
	</g>
	<g>
		<path d="M484.037,54.804c0,0-1.495-0.355-2.331-2.047c-0.836-1.691-0.9-4.054-0.9-4.054s-1.015,1.133-3.017,0.956
			c-2.002-0.177-1.782-1.03-1.782-1.03l-0.831,1.832c0,0-1.234-6.687,1.796-7.08c3.03-0.393,4.062,1.245,4.062,1.245
			s4.907,0.513,6.924,3.916c2.017,3.403-0.428,6.712-0.428,6.712S486.237,53.792,484.037,54.804z"/>
	</g>
	<g>
		<path style="fill:#5C69A5;" d="M478.763,67.588c-0.864,0-1.831-0.126-2.896-0.446c-0.129-0.039-0.201-0.173-0.163-0.302
			c0.039-0.129,0.179-0.202,0.302-0.162c4.664,1.401,7.415-1.183,7.441-1.209c0.098-0.092,0.251-0.09,0.343,0.006
			c0.093,0.096,0.091,0.249-0.005,0.342C483.692,65.908,481.915,67.588,478.763,67.588z"/>
	</g>
	<g>
		<path style="fill:#5C69A5;" d="M466.876,97.238c-0.152-0.011-0.252-0.128-0.241-0.261l0.503-6.401
			c0.011-0.133,0.13-0.236,0.26-0.223c0.134,0.011,0.233,0.128,0.223,0.261l-0.503,6.401
			C467.108,97.142,467.001,97.238,466.876,97.238z"/>
	</g>
</g>
</svg>
