<svg width="43" height="40" viewBox="0 0 43 40" fill="none" xmlns="http://www.w3.org/2000/svg">
<path d="M28.9206 19.9416C28.4897 26.1274 33.5452 30.2405 38.6646 33.1663C39.0476 33.3836 39.5224 33.1059 39.5224 32.6632V30.2244C39.5224 29.8823 39.3149 29.5764 38.9957 29.4517C35.5522 28.1356 33.0345 24.6262 33.222 21.0484C33.3976 17.6959 35.7717 14.4803 39.0556 13.273C39.3389 13.1683 39.5224 12.8947 39.5224 12.5928V10.4155C39.5224 10.0614 39.1314 9.84807 38.8401 10.0493C37.1283 11.2204 35.2969 12.2387 33.5652 13.3897C31.199 14.9633 29.1241 17.044 28.9246 19.9416H28.9206Z" fill="white"/>
<path d="M20.5333 17.4625C19.5477 19.185 18.9173 21.1852 19.1288 23.1653C19.3322 25.0609 20.3817 26.8116 21.6026 28.2805C24.2641 31.48 27.7475 34.2046 31.2907 36.4624C33.3297 37.7623 35.4604 38.9174 37.667 39.9235C37.6869 39.9316 37.8026 39.9638 37.8984 39.9839C37.9702 40 38.042 40.004 38.1139 39.996L38.6246 39.9437C39.1234 39.9437 39.5264 39.5372 39.5264 39.0341C39.5264 38.6518 39.3109 38.3016 38.9717 38.1286L38.9518 38.1205C35.7038 36.4544 32.4838 34.591 29.8622 32.0797C25.3494 27.7613 22.8077 20.9478 25.9 15.1927C28.5694 10.2224 34.5467 8.66486 38.4849 4.9341C38.5288 4.89386 38.5727 4.85361 38.6126 4.81739C39.2032 4.33042 39.5264 3.58185 39.5264 2.81316V0.555392C39.5264 0.249526 39.283 0.00402832 38.9797 0.00402832C38.7164 0.00402832 38.465 0.0925684 38.2615 0.257575C35.3686 2.59986 32.5476 5.01862 29.8024 7.52189C26.5105 10.5242 22.7518 13.599 20.5413 17.4585L20.5333 17.4625Z" fill="white"/>
<path d="M16.8105 28.997C14.0294 24.6988 14.2727 19.7164 16.7626 15.3498C19.819 9.98908 25.3095 5.70293 29.6747 1.82729C30.1934 1.36447 30.7002 0.990186 31.2349 0.579682C31.4783 0.390528 31.3466 0.00819594 31.0473 0.00819594H6.22463C2.78512 0.000146841 0 2.81331 0 6.28247V33.6655C0 37.1347 2.78512 39.9438 6.22463 39.9438H27.8193C28.1305 39.9438 28.2582 39.5333 27.9949 39.3602C27.7555 39.1993 27.516 39.0343 27.2766 38.8693C23.3862 36.1567 19.3722 32.9572 16.8105 29.0011V28.997Z" fill="white"/>
<path d="M37.5792 20.9759C37.5873 20.9357 37.5993 20.8955 37.6034 20.8552C37.6114 20.7868 37.6114 20.7948 37.5792 20.9759Z" fill="white"/>
<path d="M37.5993 21.8212C37.5913 21.7769 37.5792 21.7367 37.5752 21.6924C37.5993 21.8614 37.6034 21.8735 37.5993 21.8212Z" fill="white"/>
<path d="M39.8975 24.0588C41.5525 24.0588 42.8941 22.7056 42.8941 21.0364C42.8941 19.3671 41.5525 18.0139 39.8975 18.0139C38.2425 18.0139 36.9009 19.3671 36.9009 21.0364C36.9009 22.7056 38.2425 24.0588 39.8975 24.0588Z" fill="white"/>
</svg>
