<svg width="25" height="25" viewBox="0 0 25 25" fill="none" xmlns="http://www.w3.org/2000/svg">
<path fill-rule="evenodd" clip-rule="evenodd" d="M6.25 17.1875H3.125V21.875H6.25V17.1875ZM14.0625 10.9375H10.9375V21.875H14.0625V10.9375ZM21.875 3.125H18.75V21.875H21.875V3.125ZM18.75 1.5625C18.3356 1.5625 17.9382 1.72712 17.6451 2.02015C17.3521 2.31317 17.1875 2.7106 17.1875 3.125V21.875C17.1875 22.2894 17.3521 22.6868 17.6451 22.9799C17.9382 23.2729 18.3356 23.4375 18.75 23.4375H21.875C22.2894 23.4375 22.6868 23.2729 22.9799 22.9799C23.2729 22.6868 23.4375 22.2894 23.4375 21.875V3.125C23.4375 2.7106 23.2729 2.31317 22.9799 2.02015C22.6868 1.72712 22.2894 1.5625 21.875 1.5625H18.75ZM9.375 10.9375C9.375 10.5231 9.53962 10.1257 9.83265 9.83265C10.1257 9.53962 10.5231 9.375 10.9375 9.375H14.0625C14.4769 9.375 14.8743 9.53962 15.1674 9.83265C15.4604 10.1257 15.625 10.5231 15.625 10.9375V21.875C15.625 22.2894 15.4604 22.6868 15.1674 22.9799C14.8743 23.2729 14.4769 23.4375 14.0625 23.4375H10.9375C10.5231 23.4375 10.1257 23.2729 9.83265 22.9799C9.53962 22.6868 9.375 22.2894 9.375 21.875V10.9375ZM1.5625 17.1875C1.5625 16.7731 1.72712 16.3757 2.02015 16.0826C2.31317 15.7896 2.7106 15.625 3.125 15.625H6.25C6.6644 15.625 7.06183 15.7896 7.35485 16.0826C7.64788 16.3757 7.8125 16.7731 7.8125 17.1875V21.875C7.8125 22.2894 7.64788 22.6868 7.35485 22.9799C7.06183 23.2729 6.6644 23.4375 6.25 23.4375H3.125C2.7106 23.4375 2.31317 23.2729 2.02015 22.9799C1.72712 22.6868 1.5625 22.2894 1.5625 21.875V17.1875Z" fill="white"/>
</svg>
