<svg width="25" height="25" viewBox="0 0 25 25" fill="none" xmlns="http://www.w3.org/2000/svg">
<g clip-path="url(#clip0_2401_5853)">
<path fill-rule="evenodd" clip-rule="evenodd" d="M1.5625 4.41885V19.9235C2.99688 19.3767 4.85469 18.8423 6.69844 18.6579C8.40781 18.4845 10.2578 18.597 11.7188 19.4267V4.19854C10.6969 3.12198 8.93437 2.81417 6.85625 3.02354C4.92812 3.21729 2.94531 3.84073 1.5625 4.41885ZM13.2812 4.19854V19.4267C14.7422 18.5985 16.5938 18.4845 18.3016 18.6564C20.1453 18.8439 22.0047 19.3767 23.4375 19.9235V4.41885C22.0547 3.84073 20.0719 3.21729 18.1438 3.02354C16.0656 2.81417 14.3031 3.12198 13.2812 4.19854ZM12.5 2.78604C10.9609 1.4626 8.72969 1.26573 6.69844 1.46885C4.33281 1.70792 1.94531 2.51885 0.457813 3.19542C0.321327 3.25749 0.205586 3.35753 0.124408 3.48359C0.0432292 3.60965 4.15178e-05 3.75641 0 3.90635L0 21.0939C3.61906e-05 21.2246 0.0328705 21.3532 0.0954955 21.4679C0.15812 21.5827 0.248534 21.6799 0.358454 21.7506C0.468375 21.8213 0.594288 21.8634 0.724661 21.8728C0.855034 21.8823 0.985699 21.8589 1.10469 21.8048C2.48281 21.1798 4.70312 20.4282 6.85469 20.211C9.05625 19.9892 10.9016 20.347 11.8906 21.5814C11.9638 21.6726 12.0566 21.7462 12.1621 21.7968C12.2675 21.8474 12.383 21.8737 12.5 21.8737C12.617 21.8737 12.7325 21.8474 12.8379 21.7968C12.9434 21.7462 13.0362 21.6726 13.1094 21.5814C14.0984 20.347 15.9438 19.9892 18.1438 20.211C20.2969 20.4282 22.5188 21.1798 23.8953 21.8048C24.0143 21.8589 24.145 21.8823 24.2753 21.8728C24.4057 21.8634 24.5316 21.8213 24.6415 21.7506C24.7515 21.6799 24.8419 21.5827 24.9045 21.4679C24.9671 21.3532 25 21.2246 25 21.0939V3.90635C25 3.75641 24.9568 3.60965 24.8756 3.48359C24.7944 3.35753 24.6787 3.25749 24.5422 3.19542C23.0547 2.51885 20.6672 1.70792 18.3016 1.46885C16.2703 1.26417 14.0391 1.4626 12.5 2.78604Z" fill="white"/>
</g>
<defs>
<clipPath id="clip0_2401_5853">
<rect width="25" height="25" fill="white"/>
</clipPath>
</defs>
</svg>
