<svg width="25" height="25" viewBox="0 0 25 25" fill="none" xmlns="http://www.w3.org/2000/svg">
<path fill-rule="evenodd" clip-rule="evenodd" d="M6.25 2.34375H4.6875C3.8587 2.34375 3.06384 2.67299 2.47779 3.25904C1.89174 3.84509 1.5625 4.63995 1.5625 5.46875V21.875C1.5625 22.7038 1.89174 23.4987 2.47779 24.0847C3.06384 24.6708 3.8587 25 4.6875 25H20.3125C21.1413 25 21.9362 24.6708 22.5222 24.0847C23.1083 23.4987 23.4375 22.7038 23.4375 21.875V5.46875C23.4375 4.63995 23.1083 3.84509 22.5222 3.25904C21.9362 2.67299 21.1413 2.34375 20.3125 2.34375H18.75V3.90625H20.3125C20.7269 3.90625 21.1243 4.07087 21.4174 4.3639C21.7104 4.65692 21.875 5.05435 21.875 5.46875V21.875C21.875 22.2894 21.7104 22.6868 21.4174 22.9799C21.1243 23.2729 20.7269 23.4375 20.3125 23.4375H4.6875C4.2731 23.4375 3.87567 23.2729 3.58265 22.9799C3.28962 22.6868 3.125 22.2894 3.125 21.875V5.46875C3.125 5.05435 3.28962 4.65692 3.58265 4.3639C3.87567 4.07087 4.2731 3.90625 4.6875 3.90625H6.25V2.34375Z" fill="white"/>
<path fill-rule="evenodd" clip-rule="evenodd" d="M14.8438 1.5625H10.1562C9.94905 1.5625 9.75034 1.64481 9.60382 1.79132C9.45731 1.93784 9.375 2.13655 9.375 2.34375V3.90625C9.375 4.11345 9.45731 4.31216 9.60382 4.45868C9.75034 4.60519 9.94905 4.6875 10.1562 4.6875H14.8438C15.051 4.6875 15.2497 4.60519 15.3962 4.45868C15.5427 4.31216 15.625 4.11345 15.625 3.90625V2.34375C15.625 2.13655 15.5427 1.93784 15.3962 1.79132C15.2497 1.64481 15.051 1.5625 14.8438 1.5625ZM10.1562 0C9.53465 0 8.93851 0.24693 8.49897 0.686468C8.05943 1.12601 7.8125 1.72215 7.8125 2.34375V3.90625C7.8125 4.52785 8.05943 5.12399 8.49897 5.56353C8.93851 6.00307 9.53465 6.25 10.1562 6.25H14.8438C15.4654 6.25 16.0615 6.00307 16.501 5.56353C16.9406 5.12399 17.1875 4.52785 17.1875 3.90625V2.34375C17.1875 1.72215 16.9406 1.12601 16.501 0.686468C16.0615 0.24693 15.4654 0 14.8438 0L10.1562 0Z" fill="white"/>
<path d="M6.25 17.1875C6.25 16.7731 6.41462 16.3757 6.70765 16.0826C7.00067 15.7896 7.3981 15.625 7.8125 15.625C8.2269 15.625 8.62433 15.7896 8.91735 16.0826C9.21038 16.3757 9.375 16.7731 9.375 17.1875V18.75C9.375 19.1644 9.21038 19.5618 8.91735 19.8549C8.62433 20.1479 8.2269 20.3125 7.8125 20.3125C7.3981 20.3125 7.00067 20.1479 6.70765 19.8549C6.41462 19.5618 6.25 19.1644 6.25 18.75V17.1875ZM15.625 10.9375C15.625 10.5231 15.7896 10.1257 16.0826 9.83265C16.3757 9.53962 16.7731 9.375 17.1875 9.375C17.6019 9.375 17.9993 9.53962 18.2924 9.83265C18.5854 10.1257 18.75 10.5231 18.75 10.9375V18.75C18.75 19.1644 18.5854 19.5618 18.2924 19.8549C17.9993 20.1479 17.6019 20.3125 17.1875 20.3125C16.7731 20.3125 16.3757 20.1479 16.0826 19.8549C15.7896 19.5618 15.625 19.1644 15.625 18.75V10.9375ZM10.9375 14.0625C10.9375 13.6481 11.1021 13.2507 11.3951 12.9576C11.6882 12.6646 12.0856 12.5 12.5 12.5C12.9144 12.5 13.3118 12.6646 13.6049 12.9576C13.8979 13.2507 14.0625 13.6481 14.0625 14.0625V18.75C14.0625 19.1644 13.8979 19.5618 13.6049 19.8549C13.3118 20.1479 12.9144 20.3125 12.5 20.3125C12.0856 20.3125 11.6882 20.1479 11.3951 19.8549C11.1021 19.5618 10.9375 19.1644 10.9375 18.75V14.0625Z" fill="white"/>
</svg>
