<svg width="25" height="25" viewBox="0 0 25 25" fill="none" xmlns="http://www.w3.org/2000/svg">
<path fill-rule="evenodd" clip-rule="evenodd" d="M7.81343 17.9687C7.81343 17.7615 7.89574 17.5628 8.04225 17.4163C8.18876 17.2697 8.38748 17.1874 8.59468 17.1874H22.6572C22.8644 17.1874 23.0631 17.2697 23.2096 17.4163C23.3561 17.5628 23.4384 17.7615 23.4384 17.9687C23.4384 18.1759 23.3561 18.3746 23.2096 18.5211C23.0631 18.6676 22.8644 18.7499 22.6572 18.7499H8.59468C8.38748 18.7499 8.18876 18.6676 8.04225 18.5211C7.89574 18.3746 7.81343 18.1759 7.81343 17.9687ZM7.81343 11.7187C7.81343 11.5115 7.89574 11.3128 8.04225 11.1663C8.18876 11.0197 8.38748 10.9374 8.59468 10.9374H22.6572C22.8644 10.9374 23.0631 11.0197 23.2096 11.1663C23.3561 11.3128 23.4384 11.5115 23.4384 11.7187C23.4384 11.9259 23.3561 12.1246 23.2096 12.2711C23.0631 12.4176 22.8644 12.4999 22.6572 12.4999H8.59468C8.38748 12.4999 8.18876 12.4176 8.04225 12.2711C7.89574 12.1246 7.81343 11.9259 7.81343 11.7187ZM7.81343 5.46868C7.81343 5.26148 7.89574 5.06277 8.04225 4.91625C8.18876 4.76974 8.38748 4.68743 8.59468 4.68743H22.6572C22.8644 4.68743 23.0631 4.76974 23.2096 4.91625C23.3561 5.06277 23.4384 5.26148 23.4384 5.46868C23.4384 5.67588 23.3561 5.8746 23.2096 6.02111C23.0631 6.16762 22.8644 6.24993 22.6572 6.24993H8.59468C8.38748 6.24993 8.18876 6.16762 8.04225 6.02111C7.89574 5.8746 7.81343 5.67588 7.81343 5.46868ZM6.0228 3.35306C6.09556 3.42563 6.15328 3.51184 6.19266 3.60675C6.23205 3.70167 6.25232 3.80342 6.25232 3.90618C6.25232 4.00894 6.23205 4.1107 6.19266 4.20561C6.15328 4.30052 6.09556 4.38674 6.0228 4.45931L3.67905 6.80306C3.60648 6.87581 3.52027 6.93354 3.42535 6.97292C3.33044 7.01231 3.22869 7.03258 3.12593 7.03258C3.02316 7.03258 2.92141 7.01231 2.8265 6.97292C2.73158 6.93354 2.64537 6.87581 2.5728 6.80306L1.79155 6.02181C1.71891 5.94917 1.66129 5.86294 1.62198 5.76803C1.58267 5.67313 1.56244 5.57141 1.56244 5.46868C1.56244 5.36596 1.58267 5.26424 1.62198 5.16933C1.66129 5.07443 1.71891 4.98819 1.79155 4.91556C1.86419 4.84292 1.95042 4.7853 2.04533 4.74599C2.14023 4.70668 2.24195 4.68644 2.34468 4.68645C2.4474 4.68645 2.54912 4.70668 2.64402 4.74599C2.73893 4.7853 2.82516 4.84292 2.8978 4.91556L3.12593 5.14524L4.91655 3.35306C4.98912 3.2803 5.07533 3.22258 5.17025 3.18319C5.26516 3.14381 5.36691 3.12354 5.46968 3.12354C5.57244 3.12354 5.67419 3.14381 5.7691 3.18319C5.86402 3.22258 5.95023 3.2803 6.0228 3.35306ZM6.0228 9.60306C6.09556 9.67563 6.15328 9.76184 6.19266 9.85675C6.23205 9.95167 6.25232 10.0534 6.25232 10.1562C6.25232 10.2589 6.23205 10.3607 6.19266 10.4556C6.15328 10.5505 6.09556 10.6367 6.0228 10.7093L3.67905 13.0531C3.60648 13.1258 3.52027 13.1835 3.42535 13.2229C3.33044 13.2623 3.22869 13.2826 3.12593 13.2826C3.02316 13.2826 2.92141 13.2623 2.8265 13.2229C2.73158 13.1835 2.64537 13.1258 2.5728 13.0531L1.79155 12.2718C1.64485 12.1251 1.56244 11.9261 1.56244 11.7187C1.56244 11.5112 1.64485 11.3123 1.79155 11.1656C1.93825 11.0189 2.13721 10.9364 2.34468 10.9364C2.55214 10.9364 2.7511 11.0189 2.8978 11.1656L3.12593 11.3952L4.91655 9.60306C4.98912 9.5303 5.07533 9.47258 5.17025 9.43319C5.26516 9.39381 5.36691 9.37354 5.46968 9.37354C5.57244 9.37354 5.67419 9.39381 5.7691 9.43319C5.86402 9.47258 5.95023 9.5303 6.0228 9.60306ZM6.0228 15.8531C6.09556 15.9256 6.15328 16.0118 6.19266 16.1068C6.23205 16.2017 6.25232 16.3034 6.25232 16.4062C6.25232 16.5089 6.23205 16.6107 6.19266 16.7056C6.15328 16.8005 6.09556 16.8867 6.0228 16.9593L3.67905 19.3031C3.60648 19.3758 3.52027 19.4335 3.42535 19.4729C3.33044 19.5123 3.22869 19.5326 3.12593 19.5326C3.02316 19.5326 2.92141 19.5123 2.8265 19.4729C2.73158 19.4335 2.64537 19.3758 2.5728 19.3031L1.79155 18.5218C1.64485 18.3751 1.56244 18.1761 1.56244 17.9687C1.56244 17.7612 1.64485 17.5623 1.79155 17.4156C1.93825 17.2689 2.13721 17.1864 2.34468 17.1864C2.55214 17.1864 2.7511 17.2689 2.8978 17.4156L3.12593 17.6452L4.91655 15.8531C4.98912 15.7803 5.07533 15.7226 5.17025 15.6832C5.26516 15.6438 5.36691 15.6235 5.46968 15.6235C5.57244 15.6235 5.67419 15.6438 5.7691 15.6832C5.86402 15.7226 5.95023 15.7803 6.0228 15.8531Z" fill="#0CB5A2"/>
</svg>
