<svg width="16" height="16" viewBox="0 0 16 16" fill="none" xmlns="http://www.w3.org/2000/svg">
<g clip-path="url(#clip0_9_197321)">
<path fill-rule="evenodd" clip-rule="evenodd" d="M1.88501 0.511147C2.05999 0.336436 2.27009 0.200905 2.50141 0.113537C2.73273 0.0261686 2.97997 -0.0110424 3.22675 0.00436978C3.47354 0.019782 3.71423 0.0874655 3.93288 0.202935C4.15152 0.318404 4.34314 0.479023 4.49501 0.674147L6.29001 2.98015C6.61901 3.40315 6.73501 3.95415 6.60501 4.47415L6.05801 6.66415C6.02973 6.77758 6.03126 6.89639 6.06245 7.00906C6.09364 7.12172 6.15343 7.22441 6.23601 7.30715L8.69301 9.76415C8.77585 9.8469 8.87871 9.90679 8.99156 9.93798C9.10442 9.96918 9.22344 9.97061 9.33701 9.94215L11.526 9.39515C11.7826 9.33099 12.0505 9.326 12.3093 9.38057C12.5681 9.43514 12.8111 9.54784 13.02 9.71015L15.326 11.5041C16.155 12.1491 16.231 13.3741 15.489 14.1151L14.455 15.1491C13.715 15.8891 12.609 16.2141 11.578 15.8511C8.9392 14.9227 6.54329 13.412 4.56801 11.4311C2.5873 9.45616 1.07662 7.06061 0.148013 4.42215C-0.213987 3.39215 0.111013 2.28515 0.851013 1.54515L1.88501 0.511147Z" fill="#fff"/>
</g>
<defs>
<clipPath id="clip0_9_197321">
<rect width="16" height="16" fill="white"/>
</clipPath>
</defs>
</svg>
